<svg xmlns="http://www.w3.org/2000/svg" xmlns:xlink="http://www.w3.org/1999/xlink" width="900" height="1200" viewBox="0 0 900 1200">
  <defs>
    <pattern id="grid" width="48" height="48" patternUnits="userSpaceOnUse"><path d="M48 0H0V48" fill="none" stroke="#e8eff2" stroke-width="1"/></pattern>
    <marker id="arrow" markerWidth="10" markerHeight="10" refX="8" refY="5" orient="auto"><path d="M0 0L10 5L0 10" fill="none" stroke="#101820" stroke-width="2"/></marker>
  </defs>
  <rect width="900" height="1200" fill="#fbfdfc"/><rect width="900" height="1200" fill="url(#grid)"/>
  <rect x="36" y="534" width="828" height="630" rx="38" fill="#ffffff" fill-opacity="0.9" stroke="#0b8bcb" stroke-width="5"/>
  <path d="M302 704C354 659 414 647 470 664" fill="none" stroke="#101820" stroke-width="5" stroke-linecap="round" marker-end="url(#arrow)"/>
  <path d="M533 747C486 803 375 838 257 875M533 747C605 798 666 835 744 875" fill="none" stroke="#0b8bcb" stroke-width="4" stroke-linecap="round" marker-end="url(#arrow)"/>
  <image x="75" y="585" width="276" height="276" xlink:href="file:///Users/bytedance/Documents/postiz-app/scripts/ai-video-pipeline/hyperframes/asset-packs/tiny-agent-v1/sprites/human/point-right.png"/>
  <image x="465" y="558" width="178" height="238" xlink:href="file:///Users/bytedance/Documents/postiz-app/scripts/ai-video-pipeline/hyperframes/asset-packs/tiny-agent-v1/sprites/agent/execute.png"/>
  <g fill="#ffffff" stroke="#0b8bcb" stroke-width="4">
    <rect x="82" y="880" width="164" height="156" rx="24"/><rect x="272" y="880" width="164" height="156" rx="24"/>
    <rect x="462" y="880" width="164" height="156" rx="24"/><rect x="652" y="880" width="164" height="156" rx="24"/>
  </g>
  <image x="124" y="918" width="80" height="80" xlink:href="file:///Users/bytedance/Documents/postiz-app/scripts/ai-video-pipeline/hyperframes/asset-packs/tiny-agent-v1/sprites/props/document.png"/>
  <image x="314" y="918" width="80" height="80" xlink:href="file:///Users/bytedance/Documents/postiz-app/scripts/ai-video-pipeline/hyperframes/asset-packs/tiny-agent-v1/sprites/props/tool.png"/>
  <image x="504" y="918" width="80" height="80" xlink:href="file:///Users/bytedance/Documents/postiz-app/scripts/ai-video-pipeline/hyperframes/asset-packs/tiny-agent-v1/sprites/props/success.png"/>
  <image x="694" y="918" width="80" height="80" xlink:href="file:///Users/bytedance/Documents/postiz-app/scripts/ai-video-pipeline/hyperframes/asset-packs/tiny-agent-v1/sprites/props/warning.png"/>
  <circle cx="164" cy="1064" r="13" fill="#ffd447"/><circle cx="354" cy="1064" r="13" fill="#ffd447"/><circle cx="544" cy="1064" r="13" fill="#ffd447"/><circle cx="734" cy="1064" r="13" fill="#ffd447"/>
</svg>
