<svg xmlns="http://www.w3.org/2000/svg" width="1280" height="720" viewBox="0 0 1280 720">
  <defs>
    <pattern id="grid" width="42" height="42" patternUnits="userSpaceOnUse">
      <path d="M42 0H0V42" fill="none" stroke="#D9DAD5" stroke-width="1"/>
    </pattern>
  </defs>
  <rect width="1280" height="720" fill="#ECECEA"/>
  <rect width="1280" height="720" fill="url(#grid)" opacity="0.72"/>
  <rect x="54" y="96" width="132" height="12" rx="6" fill="#117ABD"/>
  <text x="52" y="255" fill="#111413" font-family="Arial Black, Arial, sans-serif" font-size="118" font-weight="900" letter-spacing="-3">4 AI</text>
  <text x="52" y="414" fill="#111413" font-family="Arial Black, Arial, sans-serif" font-size="118" font-weight="900" letter-spacing="-3">WORK</text>
  <text x="52" y="573" fill="#111413" font-family="Arial Black, Arial, sans-serif" font-size="118" font-weight="900" letter-spacing="-3">MODES</text>
  <rect x="54" y="616" width="392" height="16" rx="8" fill="#FFD04A"/>
  <path d="M710 200 C760 146 812 138 858 172" fill="none" stroke="#117ABD" stroke-width="5" stroke-linecap="round" stroke-dasharray="7 16" opacity="0.9"/>
  <path d="M1044 176 C1110 164 1164 198 1175 250" fill="none" stroke="#117ABD" stroke-width="5" stroke-linecap="round" stroke-dasharray="7 16" opacity="0.9"/>
  <path d="M714 520 C762 568 818 576 864 548" fill="none" stroke="#117ABD" stroke-width="5" stroke-linecap="round" stroke-dasharray="7 16" opacity="0.9"/>
  <path d="M1044 548 C1111 562 1165 526 1178 474" fill="none" stroke="#117ABD" stroke-width="5" stroke-linecap="round" stroke-dasharray="7 16" opacity="0.9"/>
</svg>
