<svg xmlns="http://www.w3.org/2000/svg" xmlns:xlink="http://www.w3.org/1999/xlink" width="1200" height="900" viewBox="0 0 1200 900">
  <defs><pattern id="grid" width="48" height="48" patternUnits="userSpaceOnUse"><path d="M48 0H0V48" fill="none" stroke="#DDE0DA" stroke-width="1"/></pattern></defs>
  <rect width="1200" height="900" fill="#ECECEA"/><rect width="1200" height="900" fill="url(#grid)"/>
  <rect x="680" y="44" width="476" height="812" rx="34" fill="#ECECEA" stroke="#117ABD" stroke-width="5"/>
  <path d="M780 341C830 293 907 282 959 318M1013 393C976 435 897 454 799 496" fill="none" stroke="#111413" stroke-width="5" stroke-linecap="round"/>
  <image x="666" y="178" width="264" height="264" xlink:href="file:///Users/bytedance/Documents/postiz-app/var/hyperframes-showcases/2026-07-19-03-ai-fluency-4d-longform-zh-CN/assets/pack/sprites/human/review-front.png"/>
  <image x="970" y="137" width="184" height="246" xlink:href="file:///Users/bytedance/Documents/postiz-app/var/hyperframes-showcases/2026-07-19-03-ai-fluency-4d-longform-zh-CN/assets/pack/sprites/agent/verify-front.png"/>
  <g fill="#ECECEA" stroke="#117ABD" stroke-width="4">
    <rect x="716" y="505" width="190" height="126" rx="24"/><rect x="930" y="505" width="190" height="126" rx="24"/>
    <rect x="716" y="674" width="190" height="126" rx="24"/><rect x="930" y="674" width="190" height="126" rx="24"/>
  </g>
  <image x="775" y="528" width="72" height="72" xlink:href="file:///Users/bytedance/Documents/postiz-app/var/hyperframes-showcases/2026-07-19-03-ai-fluency-4d-longform-zh-CN/assets/pack/sprites/props/handoff.png"/>
  <image x="989" y="528" width="72" height="72" xlink:href="file:///Users/bytedance/Documents/postiz-app/var/hyperframes-showcases/2026-07-19-03-ai-fluency-4d-longform-zh-CN/assets/pack/sprites/props/document.png"/>
  <image x="775" y="697" width="72" height="72" xlink:href="file:///Users/bytedance/Documents/postiz-app/var/hyperframes-showcases/2026-07-19-03-ai-fluency-4d-longform-zh-CN/assets/pack/sprites/props/evidence.png"/>
  <image x="989" y="697" width="72" height="72" xlink:href="file:///Users/bytedance/Documents/postiz-app/var/hyperframes-showcases/2026-07-19-03-ai-fluency-4d-longform-zh-CN/assets/pack/sprites/props/approval.png"/>
  <g fill="#FFD447"><circle cx="704" cy="568" r="12"/><circle cx="918" cy="568" r="12"/><circle cx="704" cy="737" r="12"/><circle cx="918" cy="737" r="12"/></g>
</svg>
