<svg xmlns="http://www.w3.org/2000/svg" xmlns:xlink="http://www.w3.org/1999/xlink" width="900" height="1200" viewBox="0 0 900 1200">
  <defs><pattern id="grid" width="48" height="48" patternUnits="userSpaceOnUse"><path d="M48 0H0V48" fill="none" stroke="#DDE0DA" stroke-width="1"/></pattern></defs>
  <rect width="900" height="1200" fill="#ECECEA"/><rect width="900" height="1200" fill="url(#grid)"/>
  <rect x="32" y="530" width="836" height="638" rx="34" fill="#ECECEA" stroke="#117ABD" stroke-width="5"/>
  <path d="M298 768C356 710 464 697 529 733M585 791C539 846 450 869 330 903" fill="none" stroke="#111413" stroke-width="6" stroke-linecap="round"/>
  <image x="85" y="617" width="300" height="300" xlink:href="file:///Users/bytedance/Documents/postiz-app/var/hyperframes-showcases/2026-07-19-03-ai-fluency-4d-longform-zh-CN/assets/pack/sprites/human/review-front.png"/>
  <image x="570" y="578" width="216" height="288" xlink:href="file:///Users/bytedance/Documents/postiz-app/var/hyperframes-showcases/2026-07-19-03-ai-fluency-4d-longform-zh-CN/assets/pack/sprites/agent/verify-front.png"/>
  <g fill="#ECECEA" stroke="#117ABD" stroke-width="4">
    <rect x="105" y="932" width="156" height="158" rx="24"/><rect x="284" y="932" width="156" height="158" rx="24"/>
    <rect x="463" y="932" width="156" height="158" rx="24"/><rect x="642" y="932" width="156" height="158" rx="24"/>
  </g>
  <image x="147" y="969" width="72" height="72" xlink:href="file:///Users/bytedance/Documents/postiz-app/var/hyperframes-showcases/2026-07-19-03-ai-fluency-4d-longform-zh-CN/assets/pack/sprites/props/handoff.png"/>
  <image x="326" y="969" width="72" height="72" xlink:href="file:///Users/bytedance/Documents/postiz-app/var/hyperframes-showcases/2026-07-19-03-ai-fluency-4d-longform-zh-CN/assets/pack/sprites/props/document.png"/>
  <image x="505" y="969" width="72" height="72" xlink:href="file:///Users/bytedance/Documents/postiz-app/var/hyperframes-showcases/2026-07-19-03-ai-fluency-4d-longform-zh-CN/assets/pack/sprites/props/evidence.png"/>
  <image x="684" y="969" width="72" height="72" xlink:href="file:///Users/bytedance/Documents/postiz-app/var/hyperframes-showcases/2026-07-19-03-ai-fluency-4d-longform-zh-CN/assets/pack/sprites/props/approval.png"/>
</svg>
