<svg xmlns="http://www.w3.org/2000/svg" xmlns:xlink="http://www.w3.org/1999/xlink" width="1200" height="900" viewBox="0 0 1200 900">
  <defs><pattern id="grid" width="48" height="48" patternUnits="userSpaceOnUse"><path d="M48 0H0V48" fill="none" stroke="#DDE0DA" stroke-width="1"/></pattern><marker id="arrow" markerWidth="10" markerHeight="10" refX="8" refY="5" orient="auto"><path d="M0 0L10 5L0 10" fill="none" stroke="#111413" stroke-width="2"/></marker></defs>
  <rect width="1200" height="900" fill="#ECECEA"/><rect width="1200" height="900" fill="url(#grid)"/>
  <rect x="650" y="48" width="510" height="804" rx="34" fill="#ECECEA" stroke="#117ABD" stroke-width="5"/>
  <path d="M820 330C865 290 930 280 980 302" fill="none" stroke="#111413" stroke-width="5" stroke-linecap="round" marker-end="url(#arrow)"/>
  <image x="620" y="210" width="240" height="240" xlink:href="file:///Users/bytedance/Documents/postiz-app/var/hyperframes-showcases/2026-07-18-ai-work-modes-longform-zh-CN/assets/pack/sprites/human/compare-front.png"/>
  <image x="960" y="150" width="170" height="228" xlink:href="file:///Users/bytedance/Documents/postiz-app/var/hyperframes-showcases/2026-07-18-ai-work-modes-longform-zh-CN/assets/pack/sprites/agent/collaborate-front.png"/>
  <g fill="#ECECEA" stroke="#117ABD" stroke-width="4"><rect x="704" y="480" width="190" height="130" rx="24"/><rect x="930" y="480" width="190" height="130" rx="24"/><rect x="704" y="650" width="190" height="130" rx="24"/><rect x="930" y="650" width="190" height="130" rx="24"/></g>
  <image x="759" y="505" width="80" height="80" xlink:href="file:///Users/bytedance/Documents/postiz-app/var/hyperframes-showcases/2026-07-18-ai-work-modes-longform-zh-CN/assets/pack/sprites/props/question.png"/>
  <image x="985" y="505" width="80" height="80" xlink:href="file:///Users/bytedance/Documents/postiz-app/var/hyperframes-showcases/2026-07-18-ai-work-modes-longform-zh-CN/assets/pack/sprites/props/team.png"/>
  <image x="759" y="675" width="80" height="80" xlink:href="file:///Users/bytedance/Documents/postiz-app/var/hyperframes-showcases/2026-07-18-ai-work-modes-longform-zh-CN/assets/pack/sprites/props/experiment.png"/>
  <image x="985" y="675" width="80" height="80" xlink:href="file:///Users/bytedance/Documents/postiz-app/var/hyperframes-showcases/2026-07-18-ai-work-modes-longform-zh-CN/assets/pack/sprites/props/handoff.png"/>
</svg>
