<svg xmlns="http://www.w3.org/2000/svg" xmlns:xlink="http://www.w3.org/1999/xlink" width="900" height="1200" viewBox="0 0 900 1200">
  <defs><pattern id="grid" width="48" height="48" patternUnits="userSpaceOnUse"><path d="M48 0H0V48" fill="none" stroke="#DDE0DA" stroke-width="1"/></pattern><marker id="arrow" markerWidth="10" markerHeight="10" refX="8" refY="5" orient="auto"><path d="M0 0L10 5L0 10" fill="none" stroke="#111413" stroke-width="2"/></marker></defs>
  <rect width="900" height="1200" fill="#ECECEA"/><rect width="900" height="1200" fill="url(#grid)"/>
  <rect x="40" y="520" width="820" height="640" rx="34" fill="#ECECEA" stroke="#117ABD" stroke-width="5"/>
  <path d="M370 755C430 710 500 705 560 735" fill="none" stroke="#111413" stroke-width="5" stroke-linecap="round" marker-end="url(#arrow)"/>
  <image x="105" y="565" width="280" height="280" xlink:href="file:///Users/bytedance/Documents/postiz-app/var/hyperframes-showcases/2026-07-18-ai-work-modes-longform-zh-CN/assets/pack/sprites/human/compare-front.png"/>
  <image x="600" y="545" width="195" height="260" xlink:href="file:///Users/bytedance/Documents/postiz-app/var/hyperframes-showcases/2026-07-18-ai-work-modes-longform-zh-CN/assets/pack/sprites/agent/collaborate-front.png"/>
  <g fill="#ECECEA" stroke="#117ABD" stroke-width="4"><rect x="90" y="870" width="330" height="120" rx="24"/><rect x="480" y="870" width="330" height="120" rx="24"/><rect x="90" y="1010" width="330" height="120" rx="24"/><rect x="480" y="1010" width="330" height="120" rx="24"/></g>
  <image x="215" y="892" width="76" height="76" xlink:href="file:///Users/bytedance/Documents/postiz-app/var/hyperframes-showcases/2026-07-18-ai-work-modes-longform-zh-CN/assets/pack/sprites/props/question.png"/>
  <image x="605" y="892" width="76" height="76" xlink:href="file:///Users/bytedance/Documents/postiz-app/var/hyperframes-showcases/2026-07-18-ai-work-modes-longform-zh-CN/assets/pack/sprites/props/team.png"/>
  <image x="215" y="1032" width="76" height="76" xlink:href="file:///Users/bytedance/Documents/postiz-app/var/hyperframes-showcases/2026-07-18-ai-work-modes-longform-zh-CN/assets/pack/sprites/props/experiment.png"/>
  <image x="605" y="1032" width="76" height="76" xlink:href="file:///Users/bytedance/Documents/postiz-app/var/hyperframes-showcases/2026-07-18-ai-work-modes-longform-zh-CN/assets/pack/sprites/props/handoff.png"/>
</svg>
