<svg xmlns="http://www.w3.org/2000/svg" xmlns:xlink="http://www.w3.org/1999/xlink" width="1280" height="720" viewBox="0 0 1280 720">
  <defs>
    <pattern id="grid" width="48" height="48" patternUnits="userSpaceOnUse"><path d="M48 0H0V48" fill="none" stroke="#DDE0DA" stroke-width="1"/></pattern>
    <marker id="arrow-black" markerWidth="10" markerHeight="10" refX="8" refY="5" orient="auto"><path d="M0 0L10 5L0 10" fill="none" stroke="#111413" stroke-width="2"/></marker>
    <marker id="arrow-blue" markerWidth="10" markerHeight="10" refX="8" refY="5" orient="auto"><path d="M0 0L10 5L0 10" fill="none" stroke="#117ABD" stroke-width="2"/></marker>
  </defs>
  <rect width="1280" height="720" fill="#ECECEA"/><rect width="1280" height="720" fill="url(#grid)"/>
  <rect x="760" y="46" width="478" height="628" rx="34" fill="#ECECEA" stroke="#117ABD" stroke-width="5"/>
  <path d="M895 260C930 226 979 215 1020 230" fill="none" stroke="#111413" stroke-width="5" stroke-linecap="round" marker-end="url(#arrow-black)"/>
  <path d="M1080 320C1030 360 980 380 900 398M1080 320C1130 360 1150 405 1140 452" fill="none" stroke="#117ABD" stroke-width="4" stroke-linecap="round" marker-end="url(#arrow-blue)"/>
  <image x="728" y="124" width="232" height="232" xlink:href="file:///Users/bytedance/Documents/postiz-app/var/hyperframes-showcases/2026-07-18-ai-work-modes-longform-zh-CN/assets/pack/sprites/human/compare-front.png"/>
  <image x="1025" y="95" width="170" height="228" xlink:href="file:///Users/bytedance/Documents/postiz-app/var/hyperframes-showcases/2026-07-18-ai-work-modes-longform-zh-CN/assets/pack/sprites/agent/collaborate-front.png"/>
  <g fill="#ECECEA" stroke="#117ABD" stroke-width="4">
    <rect x="790" y="382" width="184" height="112" rx="24"/><rect x="1012" y="382" width="184" height="112" rx="24"/>
    <rect x="790" y="522" width="184" height="112" rx="24"/><rect x="1012" y="522" width="184" height="112" rx="24"/>
  </g>
  <image x="846" y="401" width="72" height="72" xlink:href="file:///Users/bytedance/Documents/postiz-app/var/hyperframes-showcases/2026-07-18-ai-work-modes-longform-zh-CN/assets/pack/sprites/props/question.png"/>
  <image x="1068" y="401" width="72" height="72" xlink:href="file:///Users/bytedance/Documents/postiz-app/var/hyperframes-showcases/2026-07-18-ai-work-modes-longform-zh-CN/assets/pack/sprites/props/team.png"/>
  <image x="846" y="541" width="72" height="72" xlink:href="file:///Users/bytedance/Documents/postiz-app/var/hyperframes-showcases/2026-07-18-ai-work-modes-longform-zh-CN/assets/pack/sprites/props/experiment.png"/>
  <image x="1068" y="541" width="72" height="72" xlink:href="file:///Users/bytedance/Documents/postiz-app/var/hyperframes-showcases/2026-07-18-ai-work-modes-longform-zh-CN/assets/pack/sprites/props/handoff.png"/>
  <circle cx="777" cy="438" r="12" fill="#FFD447"/><circle cx="999" cy="438" r="12" fill="#FFD447"/>
  <circle cx="777" cy="578" r="12" fill="#FFD447"/><circle cx="999" cy="578" r="12" fill="#FFD447"/>
</svg>
