<svg xmlns="http://www.w3.org/2000/svg" xmlns:xlink="http://www.w3.org/1999/xlink" width="1280" height="720" viewBox="0 0 1280 720">
  <defs>
    <pattern id="grid" width="48" height="48" patternUnits="userSpaceOnUse"><path d="M48 0H0V48" fill="none" stroke="#DDE0DA" stroke-width="1"/></pattern>
    <marker id="arrow" markerWidth="10" markerHeight="10" refX="8" refY="5" orient="auto"><path d="M0 0L10 5L0 10" fill="none" stroke="#111413" stroke-width="2"/></marker>
  </defs>
  <rect width="1280" height="720" fill="#ECECEA"/><rect width="1280" height="720" fill="url(#grid)"/>
  <rect x="760" y="46" width="478" height="628" rx="34" fill="#ECECEA" stroke="#117ABD" stroke-width="5"/>
  <path d="M875 280C920 235 981 222 1030 244M1080 326C1040 360 965 375 884 414M1080 326C1124 368 1144 418 1133 468" fill="none" stroke="#111413" stroke-width="5" stroke-linecap="round" marker-end="url(#arrow)"/>
  <image x="730" y="125" width="238" height="238" xlink:href="file:///Users/bytedance/Documents/postiz-app/var/hyperframes-showcases/2026-07-19-03-ai-fluency-4d-longform-en-US/assets/pack/sprites/human/review-front.png"/>
  <image x="1030" y="91" width="171" height="228" xlink:href="file:///Users/bytedance/Documents/postiz-app/var/hyperframes-showcases/2026-07-19-03-ai-fluency-4d-longform-en-US/assets/pack/sprites/agent/verify-front.png"/>
  <g fill="#ECECEA" stroke="#117ABD" stroke-width="4">
    <rect x="790" y="382" width="184" height="112" rx="24"/><rect x="1012" y="382" width="184" height="112" rx="24"/>
    <rect x="790" y="522" width="184" height="112" rx="24"/><rect x="1012" y="522" width="184" height="112" rx="24"/>
  </g>
  <image x="846" y="401" width="72" height="72" xlink:href="file:///Users/bytedance/Documents/postiz-app/var/hyperframes-showcases/2026-07-19-03-ai-fluency-4d-longform-en-US/assets/pack/sprites/props/handoff.png"/>
  <image x="1068" y="401" width="72" height="72" xlink:href="file:///Users/bytedance/Documents/postiz-app/var/hyperframes-showcases/2026-07-19-03-ai-fluency-4d-longform-en-US/assets/pack/sprites/props/document.png"/>
  <image x="846" y="541" width="72" height="72" xlink:href="file:///Users/bytedance/Documents/postiz-app/var/hyperframes-showcases/2026-07-19-03-ai-fluency-4d-longform-en-US/assets/pack/sprites/props/evidence.png"/>
  <image x="1068" y="541" width="72" height="72" xlink:href="file:///Users/bytedance/Documents/postiz-app/var/hyperframes-showcases/2026-07-19-03-ai-fluency-4d-longform-en-US/assets/pack/sprites/props/approval.png"/>
  <circle cx="777" cy="438" r="12" fill="#FFD447"/><circle cx="999" cy="438" r="12" fill="#FFD447"/>
  <circle cx="777" cy="578" r="12" fill="#FFD447"/><circle cx="999" cy="578" r="12" fill="#FFD447"/>
</svg>
